<?xml version="1.0" encoding="UTF-8"?>
<svg version="1.1" xmlns="http://www.w3.org/2000/svg" width="1184" height="864">
<path d="M0 0 C390.72 0 781.44 0 1184 0 C1184 285.12 1184 570.24 1184 864 C793.28 864 402.56 864 0 864 C0 578.88 0 293.76 0 0 Z " fill="#FDFEFE" transform="translate(0,0)"/>
<path d="M0 0 C0.62003906 0.25007813 1.24007812 0.50015625 1.87890625 0.7578125 C20.78882596 8.72366103 37.19406967 19.81697289 52 34 C52.94101562 34.86625 53.88203125 35.7325 54.8515625 36.625 C79.88916515 60.14208396 96.32432402 96.17400689 98.19042969 130.50317383 C98.26685378 134.10875326 98.27758545 137.70624165 98.25 141.3125 C98.24395752 142.58561035 98.23791504 143.8587207 98.23168945 145.17041016 C98.13590154 154.26735951 97.62029823 163.03300791 96 172 C95.78214844 173.24136719 95.56429688 174.48273438 95.33984375 175.76171875 C93.67090193 184.6353821 91.42841706 193.30947195 89 202 C88.34 202 87.68 202 87 202 C86.855625 202.94875 86.71125 203.8975 86.5625 204.875 C86 208 86 208 85 210 C84.34 210 83.68 210 83 210 C82.88398437 210.72574219 82.76796875 211.45148438 82.6484375 212.19921875 C79.06838822 227.66244364 64.83410177 242.92900097 54 254 C53.17757813 254.87269531 52.35515625 255.74539063 51.5078125 256.64453125 C45.52281311 262.86854819 39.02057661 267.99238532 32 273 C31.29359375 273.51691406 30.5871875 274.03382813 29.859375 274.56640625 C22.704256 279.77719943 15.11232887 283.77602973 6.9465332 287.15869141 C5.50477337 287.78183255 4.0810633 288.44710231 2.66870117 289.13427734 C-4.20234812 292.44234738 -10.94868975 294.51770574 -18.375 296.1875 C-19.48351318 296.44160645 -20.59202637 296.69571289 -21.73413086 296.95751953 C-24.81942154 297.65474753 -27.90848902 298.33099421 -31 299 C-32.21042969 299.27199219 -33.42085937 299.54398438 -34.66796875 299.82421875 C-68.18023437 306.20104662 -108.42106193 297.45411359 -137 279 C-137.33 278.34 -137.66 277.68 -138 277 C-133.29684294 278.49955732 -128.68304771 280.10081345 -124.125 282 C-110.38205869 287.5565596 -96.31095711 289.39404747 -81.5625 289.375 C-80.25297363 289.37338867 -78.94344727 289.37177734 -77.59423828 289.37011719 C-62.14418732 289.17720432 -47.4289481 286.61369409 -33 281 C-32.11054687 280.67 -31.22109375 280.34 -30.3046875 280 C-25.26837336 278.07567698 -20.57963617 275.85520526 -16 273 C-14.75089844 272.24396484 -14.75089844 272.24396484 -13.4765625 271.47265625 C-6.91633117 267.42074866 -0.91375661 262.93996479 5 258 C5.95712891 257.22849609 5.95712891 257.22849609 6.93359375 256.44140625 C30.31466847 237.22622457 45.76820305 204.50276559 50 175 C50.5533958 168.89056534 50.59954724 162.7551176 50.6875 156.625 C50.72077295 155.00257843 50.75527128 153.38018151 50.79101562 151.7578125 C50.87475425 147.83868113 50.94208599 143.91959452 51 140 C51.61560791 139.79576416 52.23121582 139.59152832 52.86547852 139.38110352 C53.67428467 139.11225342 54.48309082 138.84340332 55.31640625 138.56640625 C56.11763916 138.30029541 56.91887207 138.03418457 57.74438477 137.76000977 C59.4828958 137.17423372 61.2123378 136.56149484 62.9375 135.9375 C66.52982509 134.83780865 70.11948853 134.2389283 73.828125 133.66015625 C76.36509153 133.14003015 76.36509153 133.14003015 78 130 C78.56822232 127.57497954 78.56822232 127.57497954 78 125 C75.97525921 122.5117188 75.97525921 122.5117188 73.1875 120.25 C72.44089111 119.60212524 72.44089111 119.60212524 71.67919922 118.94116211 C70.13363004 117.60953865 68.57092694 116.30156838 67 115 C66.10152344 114.25363281 65.20304687 113.50726563 64.27734375 112.73828125 C62.48481505 111.26782693 60.6864612 109.80444943 58.8828125 108.34765625 C55.71984203 105.77184968 52.6067545 103.14302571 49.5 100.5 C45.57615821 97.16370068 41.62738142 93.86728525 37.625 90.625 C31.92915032 85.98730527 26.39427742 81.17425518 20.85546875 76.3515625 C17.08613073 73.06997625 13.29664066 69.81243262 9.5 66.5625 C8.94916748 66.09094482 8.39833496 65.61938965 7.83081055 65.13354492 C6.76692298 64.22304535 5.70104124 63.31487009 4.63305664 62.40917969 C3.46550947 61.40169243 2.31541735 60.37383385 1.17749023 59.33300781 C0.57106689 58.78612305 -0.03535645 58.23923828 -0.66015625 57.67578125 C-1.20551025 57.17344971 -1.75086426 56.67111816 -2.31274414 56.15356445 C-5.11247585 54.23940843 -7.75709067 54.60290906 -11 55 C-15.13732929 62.81683935 -18.53306261 70.71648523 -20.90234375 79.25 C-22.20058589 83.68527564 -23.76177599 87.98391404 -25.375 92.3125 C-25.81199219 93.49875977 -25.81199219 93.49875977 -26.2578125 94.70898438 C-28.09613924 99.6716603 -30.02389402 104.59243991 -32 109.50170898 C-37.74430173 123.85264639 -42.97611642 138.38363872 -48 153 C-48.66 153 -49.32 153 -50 153 C-49.7834375 154.8871875 -49.7834375 154.8871875 -49.5625 156.8125 C-49.48128906 157.52019531 -49.40007812 158.22789062 -49.31640625 158.95703125 C-49.02829265 161.19396393 -49.02829265 161.19396393 -48 164 C-40.25663233 162.77651571 -32.81648025 160.93869244 -25.28515625 158.8046875 C-22 158 -22 158 -18 158 C-17.30103516 174.07619135 -18.35830726 191.4807838 -26 206 C-26.31678711 206.60344238 -26.63357422 207.20688477 -26.95996094 207.82861328 C-35.89483421 224.56257085 -46.74651385 237.93924835 -63 248 C-64.3220782 248.37549717 -65.65450794 248.71975009 -67 249 C-67 249.66 -67 250.32 -67 251 C-68.09699219 251.40992188 -69.19398438 251.81984375 -70.32421875 252.2421875 C-71.77865686 252.78642886 -73.23308333 253.33070133 -74.6875 253.875 C-75.7693457 254.27912109 -75.7693457 254.27912109 -76.87304688 254.69140625 C-77.57880859 254.95566406 -78.28457031 255.21992187 -79.01171875 255.4921875 C-79.70958496 255.75225586 -80.40745117 256.01232422 -81.12646484 256.28027344 C-82.56660389 256.83350902 -83.98608033 257.44076021 -85.39453125 258.0703125 C-93.92757956 261.11508836 -102.45946055 261.31015437 -111.4375 261.25 C-112.58798828 261.25773437 -113.73847656 261.26546875 -114.92382812 261.2734375 C-138.69738666 261.21955975 -157.70587154 252.27326568 -177 239 C-177.98097656 238.44570313 -178.96195312 237.89140625 -179.97265625 237.3203125 C-184.08266474 234.17018987 -186.33812464 230.45390563 -189 226.0625 C-189.52400391 225.21220215 -190.04800781 224.3619043 -190.58789062 223.48583984 C-197.07643573 212.79751725 -201.62392161 202.06180733 -205 190 C-205.32226562 188.88496094 -205.64453125 187.76992188 -205.9765625 186.62109375 C-206.31429688 185.42613281 -206.65203125 184.23117187 -207 183 C-207.35320312 181.77152344 -207.70640625 180.54304687 -208.0703125 179.27734375 C-213.98169768 156.1335073 -213.62758224 127.92413522 -207 105 C-206.58595565 103.45086342 -206.17321687 101.90137738 -205.76171875 100.3515625 C-203.03916828 90.38580085 -199.79109028 81.59323074 -194 73 C-193.3199115 71.34835649 -192.6401559 69.69657092 -191.96484375 68.04296875 C-186.26137724 55.96639796 -177.00762568 45.68834256 -168 36 C-167.42121094 35.35546875 -166.84242188 34.7109375 -166.24609375 34.046875 C-147.86257117 14.47068541 -122.52397291 0.70153015 -96.48828125 -5.17578125 C-93.06388604 -5.91664961 -93.06388604 -5.91664961 -90.10546875 -7.03515625 C-62.77830068 -15.52548394 -26.03022407 -10.7711272 0 0 Z " fill="#DE5756" transform="translate(630,287)"/>
<path d="M0 0 C0.62003906 0.25007813 1.24007812 0.50015625 1.87890625 0.7578125 C20.78882596 8.72366103 37.19406967 19.81697289 52 34 C52.94101562 34.86625 53.88203125 35.7325 54.8515625 36.625 C79.88916515 60.14208396 96.32432402 96.17400689 98.19042969 130.50317383 C98.26685378 134.10875326 98.27758545 137.70624165 98.25 141.3125 C98.24395752 142.58561035 98.23791504 143.8587207 98.23168945 145.17041016 C98.13590154 154.26735951 97.62029823 163.03300791 96 172 C95.78214844 173.24136719 95.56429687 174.48273438 95.33984375 175.76171875 C93.67090193 184.6353821 91.42841706 193.30947195 89 202 C88.34 202 87.68 202 87 202 C86.7834375 203.423125 86.7834375 203.423125 86.5625 204.875 C86 208 86 208 85 210 C84.34 210 83.68 210 83 210 C82.88398437 210.72574219 82.76796875 211.45148438 82.6484375 212.19921875 C79.06838822 227.66244364 64.83410177 242.92900097 54 254 C53.17757812 254.87269531 52.35515625 255.74539063 51.5078125 256.64453125 C45.52281311 262.86854819 39.02057661 267.99238532 32 273 C31.29359375 273.51691406 30.5871875 274.03382813 29.859375 274.56640625 C22.704256 279.77719943 15.11232887 283.77602973 6.9465332 287.15869141 C5.50477337 287.78183255 4.0810633 288.44710231 2.66870117 289.13427734 C-4.20234812 292.44234738 -10.94868975 294.51770574 -18.375 296.1875 C-19.48351318 296.44160645 -20.59202637 296.69571289 -21.73413086 296.95751953 C-24.81942154 297.65474753 -27.90848902 298.33099421 -31 299 C-32.21042969 299.27199219 -33.42085937 299.54398438 -34.66796875 299.82421875 C-68.18023437 306.20104662 -108.42106193 297.45411359 -137 279 C-137.33 278.34 -137.66 277.68 -138 277 C-133.29684294 278.49955732 -128.68304771 280.10081345 -124.125 282 C-110.38205869 287.5565596 -96.31095711 289.39404747 -81.5625 289.375 C-80.25297363 289.37338867 -78.94344727 289.37177734 -77.59423828 289.37011719 C-62.14418732 289.17720432 -47.4289481 286.61369409 -33 281 C-32.11054687 280.67 -31.22109375 280.34 -30.3046875 280 C-25.26837336 278.07567698 -20.57963617 275.85520526 -16 273 C-14.75089844 272.24396484 -14.75089844 272.24396484 -13.4765625 271.47265625 C-6.91633117 267.42074866 -0.91375661 262.93996479 5 258 C5.95712891 257.22849609 5.95712891 257.22849609 6.93359375 256.44140625 C30.31466847 237.22622457 45.76820305 204.50276559 50 175 C50.5533958 168.89056534 50.59954724 162.7551176 50.6875 156.625 C50.72077295 155.00257843 50.75527128 153.38018151 50.79101562 151.7578125 C50.87475425 147.83868113 50.94208599 143.91959452 51 140 C51.61560791 139.79576416 52.23121582 139.59152832 52.86547852 139.38110352 C53.67428467 139.11225342 54.48309082 138.84340332 55.31640625 138.56640625 C56.51825562 138.16723999 56.51825562 138.16723999 57.74438477 137.76000977 C59.4828958 137.17423372 61.2123378 136.56149484 62.9375 135.9375 C66.52982509 134.83780865 70.11948853 134.2389283 73.828125 133.66015625 C76.36509153 133.14003015 76.36509153 133.14003015 78 130 C78.56822232 127.57497954 78.56822232 127.57497954 78 125 C75.97525921 122.5117188 75.97525921 122.5117188 73.1875 120.25 C72.44089111 119.60212524 72.44089111 119.60212524 71.67919922 118.94116211 C70.13363004 117.60953865 68.57092694 116.30156838 67 115 C66.10152344 114.25363281 65.20304688 113.50726563 64.27734375 112.73828125 C62.48481505 111.26782693 60.6864612 109.80444943 58.8828125 108.34765625 C55.71984203 105.77184968 52.6067545 103.14302571 49.5 100.5 C45.57615821 97.16370068 41.62738142 93.86728525 37.625 90.625 C31.92915032 85.98730527 26.39427742 81.17425518 20.85546875 76.3515625 C17.08613073 73.06997625 13.29664066 69.81243262 9.5 66.5625 C8.94916748 66.09094482 8.39833496 65.61938965 7.83081055 65.13354492 C6.76692298 64.22304535 5.70104124 63.31487009 4.63305664 62.40917969 C3.46550947 61.40169243 2.31541735 60.37383385 1.17749023 59.33300781 C0.57106689 58.78612305 -0.03535645 58.23923828 -0.66015625 57.67578125 C-1.20551025 57.17344971 -1.75086426 56.67111816 -2.31274414 56.15356445 C-5.11247585 54.23940843 -7.75709067 54.60290906 -11 55 C-15.13732929 62.81683935 -18.53306261 70.71648523 -20.90234375 79.25 C-22.20058589 83.68527564 -23.76177599 87.98391404 -25.375 92.3125 C-25.66632813 93.10333984 -25.95765625 93.89417969 -26.2578125 94.70898438 C-28.08816372 99.65012989 -30.00965498 104.54819007 -31.97802734 109.43579102 C-33.74700396 113.87429112 -35.43291814 118.34424581 -37.125 122.8125 C-37.81471588 124.63165768 -38.50480772 126.45067287 -39.1953125 128.26953125 C-39.49453613 129.05948486 -39.79375977 129.84943848 -40.10205078 130.66333008 C-41.04544169 133.1182497 -42.01805692 135.56027406 -43 138 C-67.43007571 124.93018523 -85.09733965 101.8989178 -93.72753906 75.79980469 C-101.53961127 49.77896803 -98.21440128 21.91986918 -86 -2 C-82.93921513 -7.66836339 -82.93921513 -7.66836339 -79.1015625 -9.0234375 C-52.48029685 -11.7154756 -24.98900677 -10.34027867 0 0 Z " fill="#DD5857" transform="translate(630,287)"/>
<path d="M0 0 C-0.81404297 1.50626953 -0.81404297 1.50626953 -1.64453125 3.04296875 C-11.20328426 21.13918342 -12.8820874 37.19089139 -8 57 C-7.36728044 58.59720219 -6.70763147 60.18454588 -6 61.75 C-4.06209121 66.85812882 -6.4838905 71.05496226 -8.60546875 75.7890625 C-10.06601351 79.1519975 -11.00852428 82.471843 -12 86 C-13.07230049 89.12388686 -14.22162171 92.21776731 -15.375 95.3125 C-15.66632813 96.10333984 -15.95765625 96.89417969 -16.2578125 97.70898438 C-18.08816372 102.65012989 -20.00965498 107.54819007 -21.97802734 112.43579102 C-23.74700396 116.87429112 -25.43291814 121.34424581 -27.125 125.8125 C-27.81471588 127.63165768 -28.50480772 129.45067287 -29.1953125 131.26953125 C-29.49453613 132.05948486 -29.79375977 132.84943848 -30.10205078 133.66333008 C-31.04544169 136.1182497 -32.01805692 138.56027406 -33 141 C-57.43007571 127.93018523 -75.09733965 104.8989178 -83.72753906 78.79980469 C-91.53961127 52.77896803 -88.21440128 24.91986918 -76 1 C-72.93921513 -4.66836339 -72.93921513 -4.66836339 -69.1015625 -6.0234375 C-46.04174347 -8.35532931 -21.9727276 -8.16722139 0 0 Z " fill="#4A608C" transform="translate(620,284)"/>
<path d="M0 0 C2.24132143 1.67681988 4.29733163 3.33263873 6.375 5.1875 C6.94589355 5.68580322 7.51678711 6.18410645 8.10498047 6.69750977 C9.23644572 7.68613915 10.36496946 8.67814718 11.49023438 9.67382812 C12.72136323 10.75524662 13.97481446 11.81120924 15.234375 12.859375 C19.37829562 16.31835006 23.23037833 20.07835432 27 23.9375 C27.49387207 24.41566162 27.98774414 24.89382324 28.49658203 25.38647461 C31.0889683 28.11982131 31.98392921 29.88336119 32.5 33.62890625 C32.12654173 39.22611215 30.49522034 44.61855382 29 50 C28.71382812 51.06089844 28.42765625 52.12179687 28.1328125 53.21484375 C27.43075525 55.81245558 26.71965016 58.40721785 26 61 C25.34 61 24.68 61 24 61 C23.855625 61.94875 23.71125 62.8975 23.5625 63.875 C23 67 23 67 22 69 C21.34 69 20.68 69 20 69 C19.88398437 69.72574219 19.76796875 70.45148438 19.6484375 71.19921875 C16.06838822 86.66244364 1.83410177 101.92900097 -9 113 C-10.23363281 114.30904297 -10.23363281 114.30904297 -11.4921875 115.64453125 C-17.47718689 121.86854819 -23.97942339 126.99238532 -31 132 C-31.70640625 132.51691406 -32.4128125 133.03382813 -33.140625 133.56640625 C-40.295744 138.77719943 -47.88767113 142.77602973 -56.0534668 146.15869141 C-57.49522663 146.78183255 -58.9189367 147.44710231 -60.33129883 148.13427734 C-67.20234812 151.44234738 -73.94868975 153.51770574 -81.375 155.1875 C-82.48351318 155.44160645 -83.59202637 155.69571289 -84.73413086 155.95751953 C-87.81942154 156.65474753 -90.90848902 157.33099421 -94 158 C-95.21042969 158.27199219 -96.42085937 158.54398438 -97.66796875 158.82421875 C-131.18023437 165.20104662 -171.42106193 156.45411359 -200 138 C-200.33 137.34 -200.66 136.68 -201 136 C-196.29684294 137.49955732 -191.68304771 139.10081345 -187.125 141 C-173.38205869 146.5565596 -159.31095711 148.39404747 -144.5625 148.375 C-142.59821045 148.37258301 -142.59821045 148.37258301 -140.59423828 148.37011719 C-125.14418732 148.17720432 -110.4289481 145.61369409 -96 140 C-95.11054687 139.67 -94.22109375 139.34 -93.3046875 139 C-88.26837336 137.07567698 -83.57963617 134.85520526 -79 132 C-77.75089844 131.24396484 -77.75089844 131.24396484 -76.4765625 130.47265625 C-69.91633117 126.42074866 -63.91375661 121.93996479 -58 117 C-57.36191406 116.48566406 -56.72382812 115.97132813 -56.06640625 115.44140625 C-32.68533153 96.22622457 -17.23179695 63.50276559 -13 34 C-12.4466042 27.89056534 -12.40045276 21.7551176 -12.3125 15.625 C-12.27922705 14.00257843 -12.24472872 12.38018151 -12.20898438 10.7578125 C-12.12524575 6.83868113 -12.05791401 2.91959452 -12 -1 C-7.20352088 -1.91759817 -4.51077543 -2.06889571 0 0 Z " fill="#4A608E" transform="translate(693,428)"/>
<path d="M0 0 C1.63286654 2.4492998 2.94163444 4.77262119 4.25 7.39453125 C9.75999881 18.28191636 15.52251015 28.35731107 23 38 C23.96292969 39.29550781 23.96292969 39.29550781 24.9453125 40.6171875 C44.8836295 66.72887462 73.19468892 82.99995975 105 90 C106.19302734 90.28230469 106.19302734 90.28230469 107.41015625 90.5703125 C111.19502748 91.19827002 114.98410624 91.3667481 118.8125 91.5625 C119.60076172 91.60568359 120.38902344 91.64886719 121.20117188 91.69335938 C123.13394215 91.79878321 125.06695026 91.89983094 127 92 C121.94401912 97.05598088 112.03110547 97.17849837 105.2109375 97.36328125 C102.93222917 97.36197764 100.65347675 97.34501251 98.375 97.3125 C96.66957031 97.31733398 96.66957031 97.31733398 94.9296875 97.32226562 C71.22645066 97.17276126 52.23909872 88.23540834 33 75 C32.01902344 74.44570313 31.03804688 73.89140625 30.02734375 73.3203125 C25.91733526 70.17018987 23.66187536 66.45390563 21 62.0625 C20.47599609 61.21220215 19.95199219 60.3619043 19.41210938 59.48583984 C12.92035239 48.79222645 8.392232 38.06310796 5 26 C4.649375 24.865625 4.29875 23.73125 3.9375 22.5625 C-0.27249022 6.56453716 -0.27249022 6.56453716 0 0 Z " fill="#4C5F8B" transform="translate(420,451)"/>
<path d="M0 0 C4.70315706 1.49955732 9.31695229 3.10081345 13.875 5 C27.20670432 10.39028786 40.95743157 12.22001577 55.25 12.625 C56.38824219 12.66367187 57.52648437 12.70234375 58.69921875 12.7421875 C61.46599779 12.83518848 64.23279117 12.92102861 67 13 C67 13.33 67 13.66 67 14 C59.41 14.33 51.82 14.66 44 15 C44 16.32 44 17.64 44 19 C37.0309433 17.83556638 30.71437426 16.00241785 24.1875 13.3125 C23.32600342 12.9623584 22.46450684 12.6122168 21.5769043 12.25146484 C2.09016858 4.18033716 2.09016858 4.18033716 0 0 Z " fill="#697DA0" transform="translate(492,564)"/>
<path d="M0 0 C2.97 0 5.94 0 9 0 C9 0.99 9 1.98 9 3 C8.443125 3.226875 7.88625 3.45375 7.3125 3.6875 C4.36753316 5.35896766 2.31843456 7.55276352 0 10 C0 6.7 0 3.4 0 0 Z " fill="#D7D6D1" transform="translate(0,0)"/>
<path d="M0 0 C7.85468098 2.50439104 15.65741644 5.21949359 23 9 C22.01 9 21.02 9 20 9 C20 9.66 20 10.32 20 11 C15.42771852 9.61235767 11.3904991 7.7672178 7.1875 5.5 C6.04667969 4.8915625 4.90585937 4.283125 3.73046875 3.65625 C1 2 1 2 0 0 Z " fill="#788CAC" transform="translate(492,564)"/>
<path d="M0 0 C1.55693206 2.33539809 2.90200646 4.57968756 4.1875 7.0625 C4.55230469 7.75472656 4.91710937 8.44695312 5.29296875 9.16015625 C5.52628906 9.76730469 5.75960938 10.37445313 6 11 C5 13 5 13 4 14 C3.95936168 15.66617115 3.957279 17.33388095 4 19 C2.37893452 16.05075061 1.51556732 13.36193006 0.875 10.0625 C0.62363281 8.81146484 0.62363281 8.81146484 0.3671875 7.53515625 C-0.00211177 4.98541981 -0.06442528 2.57240933 0 0 Z " fill="#616B8D" transform="translate(420,451)"/>
<path d="M0 0 C3.63 0 7.26 0 11 0 C8.08149788 1.94566808 6.42377152 2.5152457 3.0625 3.1875 C2.20785156 3.36667969 1.35320313 3.54585937 0.47265625 3.73046875 C-2.01134859 4.00123705 -3.64449502 3.77059444 -6 3 C-4.02 2.67 -2.04 2.34 0 2 C0 1.34 0 0.68 0 0 Z " fill="#6075A6" transform="translate(534,544)"/>
<path d="M0 0 C2.97 0.33 5.94 0.66 9 1 C8.67 1.66 8.34 2.32 8 3 C5.36 2.67 2.72 2.34 0 2 C0 1.34 0 0.68 0 0 Z " fill="#3E588A" transform="translate(520,576)"/>
<path d="M0 0 C1.98 0 3.96 0 6 0 C6.33 0.99 6.66 1.98 7 3 C5.02 3 3.04 3 1 3 C0.67 2.01 0.34 1.02 0 0 Z " fill="#516995" transform="translate(512,573)"/>
</svg>
